M48
; DRILL file {KiCad (5.1.0)-1} date 10.07.2022 21:14:29
; FORMAT={-:-/ absolute / inch / decimal}
; #@! TF.CreationDate,2022-07-10T21:14:29+02:00
; #@! TF.GenerationSoftware,Kicad,Pcbnew,(5.1.0)-1
; #@! TF.FileFunction,Plated,1,2,PTH
FMAT,2
INCH
T1C0.0157
T2C0.0197
T3C0.0236
T4C0.0295
T5C0.0315
T6C0.0394
T7C0.0472
T8C0.0512
T9C0.0551
T10C0.0709
T11C0.0866
%
G90
G05
T1
X2.576Y-8.019
X2.577Y-7.967
X2.58Y-7.916
X2.624Y-8.061
X2.6865Y-7.0035
X2.745Y-7.302
X3.078Y-8.188
X3.313Y-7.855
X3.527Y-7.855
X4.547Y-8.348
X4.726Y-8.346
X5.9586Y-6.7935
X6.071Y-6.7978
X6.658Y-3.428
X6.658Y-3.88
X6.753Y-3.878
X6.813Y-4.125
X6.818Y-3.495
X6.9481Y-4.1651
X7.021Y-3.246
X7.108Y-3.704
X7.1303Y-4.2003
X7.3794Y-7.8707
X7.419Y-4.164
X7.4278Y-7.8471
X7.4455Y-8.6061
X7.4879Y-8.5677
X7.5042Y-7.8323
X7.5249Y-8.5316
X7.625Y-3.89
X7.6692Y-7.0973
X7.7427Y-8.665
X7.9539Y-7.7788
X7.955Y-7.2834
X8.0234Y-8.3505
X8.0256Y-8.3022
X8.0257Y-8.5019
X8.0259Y-8.2442
X8.0571Y-7.8528
X8.083Y-5.7615
X8.1071Y-7.8797
X8.1261Y-7.2037
X8.1571Y-7.9027
X8.168Y-7.0927
X8.1905Y-5.724
X8.1933Y-7.5443
X8.2071Y-7.2257
X8.2071Y-7.9257
X8.2571Y-7.1557
X8.2571Y-7.9497
X8.3081Y-7.9737
X8.3571Y-7.1317
X8.3571Y-7.9987
X8.4051Y-8.0227
X8.4425Y-8.3494
X8.4495Y-8.4506
X8.451Y-8.5003
X8.4571Y-7.1077
X8.4571Y-8.0467
X8.5071Y-7.0837
X8.5141Y-8.0707
X8.5571Y-7.0557
X8.5571Y-8.0967
X8.562Y-8.2958
X8.6091Y-7.5207
X8.6122Y-8.1192
X8.6195Y-6.3035
X8.6411Y-6.9997
X8.6614Y-7.4577
X8.6791Y-7.2477
X8.6991Y-7.3343
X8.7035Y-8.2301
X8.707Y-6.401
X8.7234Y-7.7987
X8.743Y-6.321
X8.7444Y-8.1999
X8.7587Y-7.2694
X8.7627Y-7.4223
X8.78Y-6.1651
X8.8344Y-8.3995
X8.8346Y-8.2315
X8.8709Y-8.4471
X8.8717Y-8.2045
X8.879Y-6.201
X8.902Y-6.769
X8.9181Y-8.2036
X8.9303Y-8.3681
X8.9318Y-8.2517
X8.9537Y-7.6228
X8.956Y-6.131
X8.9683Y-8.1963
X8.9723Y-7.0327
X9.0064Y-8.22
X9.0266Y-6.6974
X9.0559Y-8.4252
X9.064Y-8.5195
X9.0682Y-8.6
X9.081Y-6.255
X9.1474Y-6.6021
X9.157Y-8.4005
X9.1965Y-7.0333
X9.2123Y-7.5223
X9.2133Y-7.5726
X9.2211Y-6.6388
X9.276Y-8.5505
X9.3225Y-6.6038
X9.3456Y-8.0789
X9.3669Y-6.745
X9.3756Y-6.8613
X9.3937Y-8.2455
X9.4101Y-8.1503
X9.4101Y-8.1503
X9.4224Y-6.8384
X9.428Y-6.734
X9.437Y-7.981
X9.4385Y-8.3452
X9.4393Y-8.5359
X9.4538Y-8.5758
X9.4849Y-6.8235
X9.5097Y-8.6416
X9.525Y-8.4985
X9.5389Y-6.8353
X9.5418Y-7.3028
X9.5913Y-6.8223
X9.6206Y-6.7084
X9.634Y-6.6018
X9.6585Y-6.9062
X9.666Y-8.3175
X9.687Y-8.4665
X9.689Y-8.5095
X9.7375Y-7.7397
X9.7381Y-7.691
X9.7535Y-7.0318
X9.819Y-8.5985
X9.823Y-8.3945
X9.885Y-8.5525
X10.0298Y-8.393
X10.0371Y-8.3156
X10.181Y-8.5495
X10.188Y-8.4005
X10.201Y-8.6355
X10.217Y-8.5905
X10.2666Y-8.4977
X10.4099Y-3.2783
X10.4104Y-3.1938
X11.023Y-5.301
T2
X2.0077Y-2.2326
X2.0077Y-2.6263
X2.0077Y-3.02
X2.0077Y-3.4137
X2.0077Y-4.3979
X2.0077Y-4.7916
X2.0077Y-5.1853
X2.0077Y-5.579
X2.198Y-2.237
X2.398Y-2.237
X2.406Y-4.347
X2.444Y-4.294
X2.4558Y-6.7699
X2.4558Y-7.0061
X2.456Y-6.31
X2.458Y-6.526
X2.47Y-5.657
X2.513Y-7.822
X2.528Y-5.358
X2.5578Y-7.8604
X2.589Y-5.581
X2.5982Y-9.5161
X2.627Y-5.28
X2.627Y-5.39
X2.627Y-5.957
X2.634Y-5.054
X2.638Y-4.506
X2.644Y-7.766
X2.6775Y-6.2985
X2.678Y-5.389
X2.678Y-5.957
X2.684Y-4.745
X2.717Y-5.269
X2.725Y-5.073
X2.727Y-5.387
X2.728Y-5.957
X2.728Y-6.212
X2.76Y-7.767
X2.778Y-6.253
X2.785Y-4.529
X2.805Y-5.649
X2.807Y-5.754
X2.821Y-5.114
X2.904Y-5.088
X2.927Y-5.39
X2.928Y-5.959
X2.949Y-5.058
X2.978Y-5.392
X2.978Y-5.961
X2.9919Y-9.5161
X3.007Y-7.4786
X3.028Y-5.393
X3.028Y-5.961
X3.054Y-5.076
X3.078Y-5.394
X3.078Y-5.962
X3.116Y-6.213
X3.126Y-8.319
X3.127Y-5.671
X3.128Y-5.265
X3.153Y-6.254
X3.186Y-5.094
X3.1888Y-2.6263
X3.189Y-6.295
X3.227Y-8.265
X3.239Y-6.264
X3.2432Y-6.7699
X3.2432Y-7.0061
X3.244Y-6.477
X3.276Y-8.183
X3.285Y-5.052
X3.328Y-8.432
X3.378Y-4.522
X3.3856Y-9.5161
X3.391Y-7.939
X3.393Y-8.112
X3.408Y-5.217
X3.408Y-5.357
X3.408Y-5.507
X3.4098Y-4.4819
X3.435Y-7.896
X3.464Y-6.48
X3.4794Y-6.7699
X3.481Y-7.006
X3.571Y-6.967
X3.5825Y-2.6263
X3.597Y-6.442
X3.695Y-6.442
X3.697Y-6.088
X3.699Y-5.7152
X3.7026Y-4.6151
X3.7229Y-4.7444
X3.7236Y-4.802
X3.7446Y-4.9836
X3.748Y-6.089
X3.748Y-6.467
X3.7793Y-9.5161
X3.7895Y-5.0536
X3.7929Y-4.7406
X3.797Y-6.468
X3.8084Y-4.6492
X3.8815Y-5.7155
X3.8861Y-4.9954
X3.898Y-5.975
X4.0637Y-5.7144
X4.0703Y-4.8309
X4.0772Y-4.6504
X4.0804Y-4.7378
X4.0807Y-4.4679
X4.1204Y-4.7378
X4.14Y-6.01
X4.141Y-6.076
X4.173Y-9.5161
X4.2462Y-5.7129
X4.251Y-7.924
X4.266Y-7.231
X4.269Y-7.852
X4.31Y-7.315
X4.35Y-7.407
X4.381Y-8.489
X4.388Y-7.498
X4.426Y-7.591
X4.427Y-5.715
X4.471Y-7.666
X4.5667Y-9.5161
X4.6759Y-8.7441
X4.74Y-5.2409
X4.774Y-8.096
X4.877Y-8.141
X4.884Y-6.945
X4.9305Y-4.8641
X4.9305Y-4.9558
X4.9333Y-4.7743
X4.96Y-6.699
X4.96Y-6.946
X4.9604Y-9.5161
X5.001Y-6.436
X5.008Y-8.319
X5.016Y-6.503
X5.0356Y-4.0504
X5.0456Y-5.016
X5.092Y-8.143
X5.113Y-7.946
X5.1201Y-5.4093
X5.1286Y-6.4884
X5.167Y-8.18
X5.293Y-6.89
X5.306Y-6.986
X5.32Y-6.936
X5.3541Y-9.5161
X5.362Y-6.409
X5.37Y-4.478
X5.375Y-8.173
X5.416Y-5.1598
X5.437Y-7.821
X5.439Y-7.9
X5.448Y-4.286
X5.458Y-6.733
X5.483Y-7.859
X5.5197Y-4.1293
X5.552Y-4.019
X5.563Y-4.986
X5.563Y-5.114
X5.578Y-7.918
X5.619Y-6.734
X5.6908Y-6.7898
X5.6913Y-6.7338
X5.719Y-3.888
X5.743Y-7.668
X5.776Y-4.431
X5.786Y-7.63
X5.82Y-3.176
X5.82Y-3.846
X5.857Y-5.072
X5.8785Y-6.9628
X5.912Y-5.874
X5.923Y-4.286
X5.9391Y-6.9664
X6.0011Y-6.9692
X6.052Y-4.494
X6.219Y-5.449
X6.247Y-5.7609
X6.3858Y-6.9103
X6.426Y-3.181
X6.4586Y-6.4734
X6.473Y-6.2805
X6.51Y-6.8748
X6.5711Y-5.45
X6.61Y-6.8536
X6.624Y-5.109
X6.653Y-5.001
X6.6557Y-5.3849
X6.666Y-4.329
X6.7019Y-6.0986
X6.7019Y-6.2562
X6.755Y-4.922
X6.7606Y-6.0341
X6.792Y-4.878
X6.7927Y-6.9414
X6.8826Y-6.4306
X6.9Y-4.896
X6.902Y-4.829
X6.908Y-4.768
X6.917Y-3.328
X6.921Y-3.933
X6.944Y-3.402
X6.9587Y-8.0391
X6.961Y-4.839
X7.019Y-5.834
X7.0194Y-6.4051
X7.027Y-5.894
X7.0548Y-5.7718
X7.094Y-5.7276
X7.109Y-3.758
X7.113Y-5.173
X7.1197Y-7.7284
X7.131Y-4.793
X7.132Y-3.848
X7.179Y-4.463
X7.21Y-3.842
X7.2258Y-6.3063
X7.281Y-6.2009
X7.283Y-3.202
X7.288Y-3.142
X7.33Y-3.587
X7.33Y-6.418
X7.363Y-3.824
X7.378Y-3.079
X7.379Y-6.2049
X7.426Y-4.8005
X7.447Y-5.271
X7.4746Y-7.157
X7.5225Y-5.2665
X7.528Y-4.839
X7.539Y-4.9155
X7.579Y-3.263
X7.5835Y-5.7875
X7.6113Y-6.8985
X7.624Y-3.068
X7.666Y-2.919
X7.681Y-3.86
X7.719Y-5.729
X7.77Y-2.917
X7.8126Y-6.5034
X7.8128Y-6.5582
X7.8222Y-4.5322
X7.825Y-5.071
X7.829Y-4.907
X7.8296Y-5.6638
X7.9132Y-9.1224
X7.9522Y-6.1997
X7.98Y-5.743
X7.98Y-6.081
X8.0061Y-6.7515
X8.0126Y-8.5946
X8.029Y-3.868
X8.13Y-3.676
X8.167Y-5.837
X8.171Y-4.571
X8.1775Y-3.5145
X8.2221Y-8.3917
X8.23Y-3.713
X8.2376Y-6.0952
X8.2571Y-7.4807
X8.274Y-3.114
X8.277Y-3.901
X8.278Y-3.26
X8.281Y-5.6612
X8.282Y-5.0575
X8.3069Y-9.1224
X8.313Y-4.6
X8.335Y-3.112
X8.371Y-5.861
X8.409Y-3.7525
X8.4234Y-6.5484
X8.4702Y-6.7173
X8.4795Y-5.7615
X8.48Y-5.659
X8.482Y-3.059
X8.502Y-3.115
X8.531Y-3.7885
X8.5788Y-6.2699
X8.582Y-5.217
X8.582Y-5.8337
X8.6531Y-5.8022
X8.6588Y-7.5438
X8.6794Y-8.4326
X8.683Y-5.216
X8.7006Y-9.1224
X8.7615Y-2.928
X8.7615Y-3.076
X8.783Y-3.5495
X8.783Y-3.826
X8.784Y-5.217
X8.82Y-4.564
X8.8303Y-4.8807
X8.8433Y-6.472
X8.8655Y-3.0865
X8.879Y-3.7925
X8.9135Y-6.5075
X8.9303Y-4.8823
X8.96Y-2.928
X8.96Y-3.08
X9.026Y-3.656
X9.0335Y-3.496
X9.0605Y-2.928
X9.061Y-3.081
X9.066Y-4.463
X9.092Y-4.557
X9.094Y-4.609
X9.0943Y-9.1224
X9.096Y-4.657
X9.11Y-3.1645
X9.127Y-5.901
X9.1325Y-3.774
X9.135Y-3.862
X9.154Y-5.86
X9.1605Y-2.928
X9.184Y-3.299
X9.196Y-5.988
X9.2211Y-6.3355
X9.2277Y-6.2859
X9.2553Y-7.2183
X9.2605Y-2.928
X9.2722Y-6.9588
X9.2768Y-6.2451
X9.3155Y-5.857
X9.319Y-3.6171
X9.3545Y-5.8265
X9.3605Y-2.928
X9.372Y-5.779
X9.375Y-5.607
X9.413Y-3.6171
X9.459Y-3.573
X9.4605Y-2.928
X9.488Y-9.1224
X9.511Y-3.6171
X9.512Y-5.056
X9.5285Y-4.6265
X9.534Y-4.242
X9.558Y-3.535
X9.558Y-5.021
X9.5605Y-2.928
X9.575Y-5.157
X9.579Y-4.403
X9.583Y-5.265
X9.599Y-5.063
X9.614Y-3.6171
X9.616Y-4.728
X9.623Y-5.593
X9.624Y-5.165
X9.647Y-5.365
X9.6605Y-2.928
X9.6634Y-7.061
X9.6728Y-6.4441
X9.679Y-4.669
X9.711Y-3.6171
X9.76Y-5.476
X9.7605Y-2.928
X9.81Y-3.6171
X9.8235Y-3.74
X9.838Y-5.939
X9.8385Y-6.295
X9.86Y-2.929
X9.8817Y-9.1224
X9.884Y-3.283
X9.888Y-7.157
X9.888Y-7.357
X9.888Y-7.617
X9.9014Y-7.9036
X9.928Y-4.593
X9.9375Y-4.2501
X9.938Y-5.893
X9.9385Y-6.272
X9.9485Y-3.084
X9.954Y-3.0215
X9.9552Y-6.5199
X9.9605Y-2.928
X9.988Y-4.564
X9.988Y-7.057
X10.009Y-3.002
X10.022Y-3.2295
X10.028Y-3.64
X10.039Y-6.253
X10.0608Y-3.167
X10.088Y-6.957
X10.0885Y-4.5385
X10.113Y-2.962
X10.134Y-4.601
X10.134Y-4.6935
X10.1365Y-3.0585
X10.138Y-7.907
X10.1466Y-6.4061
X10.2754Y-9.1224
X10.288Y-6.957
X10.288Y-7.907
X10.318Y-3.777
X10.318Y-3.827
X10.318Y-3.877
X10.318Y-3.927
X10.4265Y-4.1675
X10.438Y-7.907
X10.488Y-6.957
X10.488Y-8.407
X10.488Y-8.657
X10.538Y-3.777
X10.538Y-3.827
X10.538Y-3.877
X10.538Y-3.927
X10.548Y-8.177
X10.604Y-3.7225
X10.6075Y-3.9985
X10.638Y-7.907
X10.641Y-5.948
X10.6422Y-5.7506
X10.668Y-8.077
X10.668Y-8.177
X10.6691Y-9.1224
X10.688Y-6.957
X10.688Y-7.157
X10.688Y-7.357
X10.688Y-7.557
X10.737Y-5.104
X10.738Y-5.94
X10.7585Y-5.492
X10.788Y-8.407
X10.788Y-8.657
X10.7886Y-6.4117
X10.798Y-5.775
X10.8372Y-6.3704
X10.85Y-5.621
X10.855Y-3.7525
X10.871Y-3.859
X10.874Y-3.4635
X10.8745Y-3.912
X10.878Y-3.987
X10.878Y-4.047
X10.8875Y-3.6245
X10.975Y-6.405
X11.0375Y-6.4315
X11.038Y-8.407
X11.038Y-8.657
X11.043Y-6.311
X11.056Y-7.855
X11.0628Y-9.1224
X11.083Y-5.52
X11.0832Y-5.1668
X11.089Y-5.787
X11.136Y-3.8125
X11.1366Y-5.5994
X11.152Y-6.3545
X11.1916Y-5.5994
X11.2005Y-4.2025
X11.201Y-4.0555
X11.238Y-6.318
X11.258Y-7.495
X11.268Y-3.987
X11.289Y-4.496
X11.308Y-4.027
X11.329Y-2.504
X11.3344Y-5.2704
X11.389Y-4.465
X11.411Y-7.012
X11.413Y-5.988
X11.439Y-4.579
X11.4475Y-5.1605
X11.448Y-5.245
X11.4565Y-9.1224
X11.464Y-2.521
X11.496Y-7.861
X11.538Y-4.4675
X11.585Y-5.317
X11.595Y-5.66
X11.689Y-5.299
X11.745Y-5.503
X11.745Y-5.945
X11.826Y-4.731
X11.826Y-4.815
X11.8502Y-9.1224
X11.864Y-4.773
X11.866Y-4.862
X11.898Y-6.776
X11.917Y-6.275
X11.936Y-7.845
X11.9625Y-5.16
X11.972Y-6.252
X11.976Y-3.716
X11.977Y-3.875
X11.979Y-4.196
X11.982Y-4.035
X12.019Y-6.223
X12.106Y-6.223
X12.107Y-5.945
X12.135Y-5.899
X12.144Y-6.258
X12.1855Y-3.6165
X12.1865Y-3.711
X12.2415Y-4.717
X12.2439Y-9.1224
X12.2465Y-4.9
X12.247Y-4.535
X12.248Y-4.171
X12.248Y-4.353
X12.2485Y-4.9915
X12.25Y-7.599
X12.25Y-7.811
X12.3015Y-5.91
X12.316Y-3.873
X12.316Y-4.0335
X12.358Y-6.156
X12.387Y-5.255
X12.434Y-5.282
X12.435Y-5.648
X12.436Y-5.469
X12.461Y-5.919
X12.5025Y-5.08
X12.6376Y-9.1224
X12.691Y-5.722
X12.693Y-5.176
X12.696Y-5.358
X12.696Y-5.539
X12.922Y-7.849
X12.927Y-5.939
X13.026Y-5.396
X13.0313Y-9.1224
X13.0395Y-4.991
X13.092Y-4.9375
X13.255Y-5.947
X13.295Y-3.992
X13.298Y-4.05
X13.321Y-3.39
X13.35Y-5.393
X13.357Y-3.423
X13.425Y-9.1224
X13.514Y-3.704
X13.536Y-3.541
X13.563Y-4.8475
X13.564Y-3.718
X13.5655Y-4.982
X13.59Y-3.548
X13.62Y-3.709
X13.712Y-3.2205
X13.742Y-4.9845
X13.7435Y-4.827
X13.8187Y-1.8389
X13.8187Y-7.9413
X13.8187Y-8.335
X13.8187Y-8.7287
X13.8187Y-9.1224
X14.0156Y-6.957
X14.0156Y-7.3507
X14.0156Y-7.7444
X14.1671Y-4.5541
X14.1671Y-5.0338
X14.1671Y-5.4275
X14.1671Y-5.8212
X14.1671Y-6.2149
X14.4093Y-1.8389
X14.4093Y-2.2326
X14.4093Y-2.6263
X14.4093Y-3.02
X14.4093Y-3.4137
X14.4093Y-3.8074
X14.4093Y-4.2011
T3
X2.3627Y-3.7316
X2.4244Y-3.7265
X2.4734Y-3.7265
X2.5226Y-3.7265
X2.536Y-4.736
X2.6Y-4.737
X2.823Y-3.641
X2.842Y-3.393
X2.994Y-3.639
X3.5356Y-3.2375
X3.598Y-3.2375
X3.6595Y-3.2375
X3.7359Y-3.2375
X5.3033Y-6.7652
X5.3033Y-6.8128
X6.4652Y-6.9918
X6.5262Y-6.9918
X7.539Y-4.24
X8.7941Y-7.7597
X8.8257Y-7.7913
X9.299Y-8.2525
X9.3595Y-8.1895
X9.581Y-8.0216
X9.581Y-8.074
X9.672Y-8.2525
X9.717Y-8.2525
X9.8184Y-8.1463
X9.828Y-8.2525
X9.8675Y-8.1463
X9.873Y-8.2525
X11.168Y-7.5715
X11.2265Y-7.5435
X11.344Y-7.549
X11.4875Y-7.253
X11.5885Y-7.191
X11.6855Y-7.274
X11.688Y-7.15
X12.395Y-7.8545
X12.5965Y-7.8565
X12.853Y-7.85
T4
X6.016Y-3.124
X6.066Y-3.124
X6.116Y-3.124
X6.695Y-7.372
X6.745Y-7.322
X6.745Y-7.422
X6.017Y-3.368
X6.067Y-3.368
X6.117Y-3.368
T5
X4.251Y-6.253
X4.3324Y-6.2922
X4.9313Y-4.6838
X5.1011Y-4.1859
X5.167Y-4.186
X5.275Y-4.684
X5.639Y-4.677
X5.639Y-4.737
X5.639Y-5.1766
X5.639Y-5.2374
X5.6705Y-4.3905
X5.715Y-4.055
X5.715Y-4.12
X5.715Y-4.346
X5.743Y-4.569
X5.858Y-6.2286
X5.9316Y-6.2286
X6.464Y-7.117
X6.495Y-3.844
X6.525Y-7.117
X6.627Y-4.504
X6.948Y-4.55
X6.948Y-4.617
X6.953Y-6.1039
X6.953Y-6.1709
X7.7303Y-4.1687
X8.228Y-5.291
X9.232Y-4.2514
X9.232Y-4.3144
X9.253Y-5.182
X9.295Y-5.27
X10.2121Y-3.047
X10.2121Y-3.112
X10.536Y-3.5845
X10.709Y-3.4755
X10.7105Y-3.544
X11.067Y-3.317
X11.2376Y-2.4104
X11.2376Y-2.4849
X11.8958Y-5.5994
X13.7749Y-3.8951
X13.7752Y-2.8158
X13.7776Y-4.1103
X13.7806Y-3.0913
X5.7729Y-5.612
X5.8516Y-5.612
X7.9571Y-7.3707
X7.9571Y-7.4707
X7.9571Y-7.5707
X7.9571Y-7.6707
X8.0571Y-7.2707
X8.0571Y-7.3707
X8.0571Y-7.4707
X8.0571Y-7.5707
X8.0571Y-7.6707
X8.0571Y-7.7707
X8.1571Y-7.2707
X8.1571Y-7.3707
X8.1571Y-7.6707
X8.1571Y-7.7707
X8.2571Y-7.2707
X8.2571Y-7.3707
X8.2571Y-7.6707
X8.2571Y-7.7707
X8.3571Y-7.2707
X8.3571Y-7.3707
X8.3571Y-7.6707
X8.3571Y-7.7707
X8.4571Y-7.2707
X8.4571Y-7.3707
X8.4571Y-7.4707
X8.4571Y-7.5707
X8.4571Y-7.6707
X8.4571Y-7.7707
X8.5571Y-7.3707
X8.5571Y-7.4707
X8.5571Y-7.5707
X8.5571Y-7.6707
X6.0192Y-5.2463
X6.0192Y-5.5463
X6.1192Y-5.2463
X6.1192Y-5.5463
X6.2192Y-5.2463
X6.2192Y-5.5463
X6.3192Y-5.2463
X6.3192Y-5.5463
X6.4192Y-5.2463
X6.4192Y-5.5463
X6.5192Y-5.2463
X6.5192Y-5.5463
X6.6192Y-5.2463
X6.6192Y-5.5463
X6.7192Y-5.2463
X6.7192Y-5.5463
X3.0271Y-8.0171
X3.0271Y-8.6171
X3.1271Y-8.0171
X3.1271Y-8.6171
X3.2271Y-8.0171
X3.2271Y-8.6171
X3.3271Y-8.0171
X3.3271Y-8.6171
X3.4271Y-8.0171
X3.4271Y-8.6171
X3.5271Y-8.0171
X3.5271Y-8.6171
X3.6271Y-8.0171
X3.6271Y-8.6171
X3.7271Y-8.0171
X3.7271Y-8.6171
X3.8271Y-8.0171
X3.8271Y-8.6171
X3.9271Y-8.0171
X3.9271Y-8.6171
X4.0271Y-8.0171
X4.0271Y-8.6171
X4.1271Y-8.0171
X4.1271Y-8.6171
X4.2271Y-8.0171
X4.2271Y-8.6171
X4.3271Y-8.0171
X4.3271Y-8.6171
X4.4271Y-8.0171
X4.4271Y-8.6171
X4.5271Y-8.0171
X4.5271Y-8.6171
X4.6271Y-8.0171
X4.6271Y-8.6171
X4.7271Y-8.0171
X4.7271Y-8.6171
X4.8271Y-8.0171
X4.8271Y-8.6171
X4.9271Y-8.0171
X4.9271Y-8.6171
X5.2251Y-5.9738
X5.3251Y-6.0738
X5.4251Y-5.9738
X8.7134Y-2.6337
X8.7134Y-2.8337
X8.8134Y-2.6337
X8.8134Y-2.8337
X8.9134Y-2.6337
X8.9134Y-2.8337
X9.0134Y-2.6337
X9.0134Y-2.8337
X9.1134Y-2.6337
X9.1134Y-2.8337
X9.2134Y-2.6337
X9.2134Y-2.8337
X9.3134Y-2.6337
X9.3134Y-2.8337
X9.4134Y-2.6337
X9.4134Y-2.8337
X9.5134Y-2.6337
X9.5134Y-2.8337
X9.6134Y-2.6337
X9.6134Y-2.8337
X9.7134Y-2.6337
X9.7134Y-2.8337
X9.8134Y-2.6337
X9.8134Y-2.8337
X9.9134Y-2.6337
X9.9134Y-2.8337
X10.0134Y-2.6337
X10.0134Y-2.8337
X10.1134Y-2.6337
X10.1134Y-2.8337
X4.06Y-6.8125
X4.06Y-7.1125
X4.16Y-6.8125
X4.16Y-7.1125
X4.26Y-6.8125
X4.26Y-7.1125
X4.36Y-6.8125
X4.36Y-7.1125
X4.46Y-6.8125
X4.46Y-7.1125
X4.56Y-6.8125
X4.56Y-7.1125
X4.66Y-6.8125
X4.66Y-7.1125
X4.76Y-6.8125
X4.76Y-7.1125
X4.86Y-6.8125
X4.86Y-7.1125
X4.96Y-6.8125
X4.96Y-7.1125
X5.06Y-6.8125
X5.06Y-7.1125
X5.16Y-6.8125
X5.16Y-7.1125
X12.0Y-7.3569
X12.0Y-7.6569
X12.1Y-7.3569
X12.1Y-7.6569
X12.2Y-7.3569
X12.2Y-7.6569
X12.3Y-7.3569
X12.3Y-7.6569
X12.4Y-7.3569
X12.4Y-7.6569
X12.5Y-7.3569
X12.5Y-7.6569
X12.6Y-7.3569
X12.6Y-7.6569
X12.7Y-7.3569
X12.7Y-7.6569
X3.461Y-4.0947
X3.461Y-4.39
X6.5555Y-8.2503
X6.5555Y-8.4432
X10.978Y-7.3569
X10.978Y-7.6569
X11.078Y-7.3569
X11.078Y-7.6569
X11.178Y-7.3569
X11.178Y-7.6569
X11.278Y-7.3569
X11.278Y-7.6569
X11.378Y-7.3569
X11.378Y-7.6569
X11.478Y-7.3569
X11.478Y-7.6569
X11.578Y-7.3569
X11.578Y-7.6569
X11.678Y-7.3569
X11.678Y-7.6569
X9.8381Y-4.3557
X9.8381Y-4.9557
X9.9381Y-4.3557
X9.9381Y-4.9557
X10.0381Y-4.3557
X10.0381Y-4.9557
X10.1381Y-4.3557
X10.1381Y-4.9557
X10.2381Y-4.3557
X10.2381Y-4.9557
X10.3381Y-4.3557
X10.3381Y-4.9557
X10.4381Y-4.3557
X10.4381Y-4.9557
X10.5381Y-4.3557
X10.5381Y-4.9557
X10.6381Y-4.3557
X10.6381Y-4.9557
X10.7381Y-4.3557
X10.7381Y-4.9557
X10.8381Y-4.3557
X10.8381Y-4.9557
X10.9381Y-4.3557
X10.9381Y-4.9557
X11.0381Y-4.3557
X11.0381Y-4.9557
X11.1381Y-4.3557
X11.1381Y-4.9557
X11.2381Y-4.3557
X11.2381Y-4.9557
X11.3381Y-4.3557
X11.3381Y-4.9557
X11.4381Y-4.3557
X11.4381Y-4.9557
X11.5381Y-4.3557
X11.5381Y-4.9557
X11.6381Y-4.3557
X11.6381Y-4.9557
X11.7381Y-4.3557
X11.7381Y-4.9557
X2.535Y-4.5888
X2.535Y-4.8888
X2.635Y-4.5888
X2.635Y-4.8888
X2.735Y-4.5888
X2.735Y-4.8888
X2.835Y-4.5888
X2.835Y-4.8888
X2.935Y-4.5888
X2.935Y-4.8888
X3.035Y-4.5888
X3.035Y-4.8888
X3.135Y-4.5888
X3.135Y-4.8888
X3.235Y-4.5888
X3.235Y-4.8888
X3.335Y-4.5888
X3.335Y-4.8888
X9.8381Y-6.088
X9.8381Y-6.688
X9.9381Y-6.088
X9.9381Y-6.688
X10.0381Y-6.088
X10.0381Y-6.688
X10.1381Y-6.088
X10.1381Y-6.688
X10.2381Y-6.088
X10.2381Y-6.688
X10.3381Y-6.088
X10.3381Y-6.688
X10.4381Y-6.088
X10.4381Y-6.688
X10.5381Y-6.088
X10.5381Y-6.688
X10.6381Y-6.088
X10.6381Y-6.688
X10.7381Y-6.088
X10.7381Y-6.688
X10.8381Y-6.088
X10.8381Y-6.688
X10.9381Y-6.088
X10.9381Y-6.688
X11.0381Y-6.088
X11.0381Y-6.688
X11.1381Y-6.088
X11.1381Y-6.688
X11.2381Y-6.088
X11.2381Y-6.688
X11.3381Y-6.088
X11.3381Y-6.688
X11.4381Y-6.088
X11.4381Y-6.688
X11.5381Y-6.088
X11.5381Y-6.688
X11.6381Y-6.088
X11.6381Y-6.688
X11.7381Y-6.088
X11.7381Y-6.688
X7.0303Y-5.3793
X7.0303Y-5.9793
X7.1303Y-5.3793
X7.1303Y-5.9793
X7.2303Y-5.3793
X7.2303Y-5.9793
X7.3303Y-5.3793
X7.3303Y-5.9793
X7.4303Y-5.3793
X7.4303Y-5.9793
X7.5303Y-5.3793
X7.5303Y-5.9793
X7.6303Y-5.3793
X7.6303Y-5.9793
X7.7303Y-5.3793
X7.7303Y-5.9793
X7.8303Y-5.3793
X7.8303Y-5.9793
X7.9303Y-5.3793
X7.9303Y-5.9793
X8.0303Y-5.3793
X8.0303Y-5.9793
X8.1303Y-5.3793
X8.1303Y-5.9793
X8.2303Y-5.3793
X8.2303Y-5.9793
X8.3303Y-5.3793
X8.3303Y-5.9793
X8.4303Y-5.3793
X8.4303Y-5.9793
X8.5303Y-5.3793
X8.5303Y-5.9793
X8.6303Y-5.3793
X8.6303Y-5.9793
X8.7303Y-5.3793
X8.7303Y-5.9793
X8.8303Y-5.3793
X8.8303Y-5.9793
X8.9303Y-5.3793
X8.9303Y-5.9793
X5.299Y-3.236
X5.299Y-3.436
X5.399Y-3.336
X5.8586Y-6.3799
X5.8586Y-6.6799
X5.9586Y-6.3799
X5.9586Y-6.6799
X6.0586Y-6.3799
X6.0586Y-6.6799
X6.1586Y-6.3799
X6.1586Y-6.6799
X6.2586Y-6.3799
X6.2586Y-6.6799
X6.3586Y-6.3799
X6.3586Y-6.6799
X6.4586Y-6.3799
X6.4586Y-6.6799
X6.5586Y-6.3799
X6.5586Y-6.6799
X6.6586Y-6.3799
X6.6586Y-6.6799
X6.7586Y-6.3799
X6.7586Y-6.6799
X6.9247Y-7.2148
X6.9247Y-7.5148
X7.0247Y-7.2148
X7.0247Y-7.5148
X7.1247Y-7.2148
X7.1247Y-7.5148
X7.2247Y-7.2148
X7.2247Y-7.5148
X7.3247Y-7.2148
X7.3247Y-7.5148
X7.4247Y-7.2148
X7.4247Y-7.5148
X7.5247Y-7.2148
X7.5247Y-7.5148
X6.193Y-4.4045
X6.293Y-4.3045
X6.393Y-4.4045
X8.8051Y-7.3717
X8.8051Y-7.4717
X8.8051Y-7.5717
X8.8051Y-7.6717
X8.9051Y-7.2717
X8.9051Y-7.3717
X8.9051Y-7.4717
X8.9051Y-7.5717
X8.9051Y-7.6717
X8.9051Y-7.7717
X9.0051Y-7.2717
X9.0051Y-7.3717
X9.0051Y-7.6717
X9.0051Y-7.7717
X9.1051Y-7.2717
X9.1051Y-7.3717
X9.1051Y-7.6717
X9.1051Y-7.7717
X9.2051Y-7.2717
X9.2051Y-7.3717
X9.2051Y-7.6717
X9.2051Y-7.7717
X9.3051Y-7.2717
X9.3051Y-7.3717
X9.3051Y-7.4717
X9.3051Y-7.5717
X9.3051Y-7.6717
X9.3051Y-7.7717
X9.4051Y-7.3717
X9.4051Y-7.4717
X9.4051Y-7.5717
X9.4051Y-7.6717
X10.9655Y-3.1755
X11.0639Y-3.1755
X11.2948Y-5.4431
X11.2948Y-5.7431
X11.3948Y-5.4431
X11.3948Y-5.7431
X11.4948Y-5.4431
X11.4948Y-5.7431
X11.5948Y-5.4431
X11.5948Y-5.7431
X11.6948Y-5.4431
X11.6948Y-5.7431
X11.7948Y-5.4431
X11.7948Y-5.7431
X11.8948Y-5.4431
X11.8948Y-5.7431
X3.462Y-4.5937
X3.462Y-4.889
X2.535Y-4.0896
X2.535Y-4.3896
X2.635Y-4.0896
X2.635Y-4.3896
X2.735Y-4.0896
X2.735Y-4.3896
X2.835Y-4.0896
X2.835Y-4.3896
X2.935Y-4.0896
X2.935Y-4.3896
X3.035Y-4.0896
X3.035Y-4.3896
X3.135Y-4.0896
X3.135Y-4.3896
X3.235Y-4.0896
X3.235Y-4.3896
X3.335Y-4.0896
X3.335Y-4.3896
X12.232Y-6.5213
X12.232Y-6.6
X7.0303Y-3.3715
X7.0303Y-3.9715
X7.1303Y-3.3715
X7.1303Y-3.9715
X7.2303Y-3.3715
X7.2303Y-3.9715
X7.3303Y-3.3715
X7.3303Y-3.9715
X7.4303Y-3.3715
X7.4303Y-3.9715
X7.5303Y-3.3715
X7.5303Y-3.9715
X7.6303Y-3.3715
X7.6303Y-3.9715
X7.7303Y-3.3715
X7.7303Y-3.9715
X7.8303Y-3.3715
X7.8303Y-3.9715
X7.9303Y-3.3715
X7.9303Y-3.9715
X8.0303Y-3.3715
X8.0303Y-3.9715
X8.1303Y-3.3715
X8.1303Y-3.9715
X8.2303Y-3.3715
X8.2303Y-3.9715
X8.3303Y-3.3715
X8.3303Y-3.9715
X8.4303Y-3.3715
X8.4303Y-3.9715
X8.5303Y-3.3715
X8.5303Y-3.9715
X8.6303Y-3.3715
X8.6303Y-3.9715
X8.7303Y-3.3715
X8.7303Y-3.9715
X8.8303Y-3.3715
X8.8303Y-3.9715
X8.9303Y-3.3715
X8.9303Y-3.9715
X7.1165Y-2.6329
X7.1165Y-2.8329
X7.2165Y-2.6329
X7.2165Y-2.8329
X7.3165Y-2.6329
X7.3165Y-2.8329
X7.4165Y-2.6329
X7.4165Y-2.8329
X7.5165Y-2.6329
X7.5165Y-2.8329
X7.6165Y-2.6329
X7.6165Y-2.8329
X7.7165Y-2.6329
X7.7165Y-2.8329
X7.0303Y-4.3951
X7.0303Y-4.9951
X7.1303Y-4.3951
X7.1303Y-4.9951
X7.2303Y-4.3951
X7.2303Y-4.9951
X7.3303Y-4.3951
X7.3303Y-4.9951
X7.4303Y-4.3951
X7.4303Y-4.9951
X7.5303Y-4.3951
X7.5303Y-4.9951
X7.6303Y-4.3951
X7.6303Y-4.9951
X7.7303Y-4.3951
X7.7303Y-4.9951
X7.8303Y-4.3951
X7.8303Y-4.9951
X7.9303Y-4.3951
X7.9303Y-4.9951
X8.0303Y-4.3951
X8.0303Y-4.9951
X8.1303Y-4.3951
X8.1303Y-4.9951
X8.2303Y-4.3951
X8.2303Y-4.9951
X8.3303Y-4.3951
X8.3303Y-4.9951
X8.4303Y-4.3951
X8.4303Y-4.9951
X8.5303Y-4.3951
X8.5303Y-4.9951
X8.6303Y-4.3951
X8.6303Y-4.9951
X8.7303Y-4.3951
X8.7303Y-4.9951
X8.8303Y-4.3951
X8.8303Y-4.9951
X8.9303Y-4.3951
X8.9303Y-4.9951
X10.179Y-3.295
X10.179Y-3.495
X10.279Y-3.395
X13.135Y-7.3569
X13.135Y-7.6569
X13.235Y-7.3569
X13.235Y-7.6569
X13.335Y-7.3569
X13.335Y-7.6569
X13.435Y-7.3569
X13.435Y-7.6569
X9.8381Y-5.3644
X9.8381Y-5.6644
X9.9381Y-5.3644
X9.9381Y-5.6644
X10.0381Y-5.3644
X10.0381Y-5.6644
X10.1381Y-5.3644
X10.1381Y-5.6644
X10.2381Y-5.3644
X10.2381Y-5.6644
X10.3381Y-5.3644
X10.3381Y-5.6644
X10.4381Y-5.3644
X10.4381Y-5.6644
X10.5381Y-5.3644
X10.5381Y-5.6644
X3.176Y-8.8841
X3.3689Y-8.8841
T6
X2.47Y-8.2045
X2.47Y-8.284
X2.47Y-8.3616
X5.0653Y-9.298
X5.1473Y-9.298
X5.2267Y-9.298
X5.235Y-7.609
X6.968Y-5.248
X7.994Y-8.763
X8.074Y-8.763
X8.156Y-8.763
X10.771Y-8.053
X10.771Y-8.139
X10.822Y-8.223
X11.208Y-5.108
X11.8255Y-6.5065
X11.8255Y-6.8325
X11.8255Y-6.9155
X11.8255Y-7.006
X13.0118Y-6.1762
X13.096Y-6.1762
X13.1808Y-6.1762
X13.36Y-6.064
X13.437Y-6.064
X13.469Y-7.005
X13.498Y-5.646
X13.498Y-5.724
X13.498Y-5.803
X13.517Y-6.064
X13.759Y-5.232
X13.834Y-5.232
X3.6675Y-6.8225
X3.6675Y-6.9225
X3.7675Y-6.8225
X3.7675Y-6.9225
X13.7751Y-3.3415
X13.7751Y-3.4498
X13.7751Y-3.5581
X13.7751Y-3.6663
X13.7751Y-3.7746
X13.8775Y-3.3957
X13.8775Y-3.5039
X13.8775Y-3.6122
X13.8775Y-3.7205
X2.546Y-7.223
X2.546Y-7.323
X2.546Y-7.423
X2.546Y-7.523
X2.546Y-7.623
X2.646Y-7.223
X2.646Y-7.323
X2.646Y-7.423
X2.646Y-7.523
X2.646Y-7.623
X4.08Y-1.953
X4.08Y-2.053
X4.18Y-1.953
X4.18Y-2.053
X12.868Y-4.435
X12.968Y-4.435
X13.068Y-4.435
X13.168Y-4.435
X11.1964Y-8.2234
X11.2964Y-8.2234
X11.3964Y-8.2234
X11.4964Y-8.2234
X11.5964Y-8.2234
X11.6964Y-8.2234
X11.7964Y-8.2234
X11.8964Y-8.2234
X11.9964Y-8.2234
X12.0964Y-8.2234
X12.1964Y-8.2234
X12.2964Y-8.2234
X12.3964Y-8.2234
X12.4964Y-8.2234
X12.5964Y-8.2234
X12.6964Y-8.2234
X12.7964Y-8.2234
X12.8964Y-8.2234
X12.9964Y-8.2234
X13.0964Y-8.2234
X13.1964Y-8.2234
X13.2964Y-8.2234
X13.3964Y-8.2234
X13.4964Y-8.2234
X13.7751Y-2.0817
X13.7751Y-2.19
X13.7751Y-2.2982
X13.7751Y-2.4065
X13.7751Y-2.5148
X13.8775Y-2.1358
X13.8775Y-2.2441
X13.8775Y-2.3524
X13.8775Y-2.4606
X6.222Y-2.444
X4.08Y-2.202
X4.08Y-2.302
X4.08Y-2.402
X4.08Y-2.502
X4.18Y-2.202
X4.18Y-2.302
X4.18Y-2.402
X4.18Y-2.502
X5.329Y-2.444
X5.429Y-2.444
X5.529Y-2.444
X5.629Y-2.444
X2.769Y-7.889
X2.869Y-7.889
T7
X12.1468Y-2.436
X12.2169Y-2.3179
X12.2869Y-2.436
X12.357Y-2.3179
X12.4271Y-2.436
X12.4972Y-2.3179
X12.5673Y-2.436
X12.6373Y-2.3179
X12.7074Y-2.436
X12.7775Y-2.3179
X12.8476Y-2.436
X12.9177Y-2.3179
X12.9877Y-2.436
T8
X5.1726Y-4.9152
X5.271Y-5.3089
X5.3694Y-4.9152
T9
X5.5783Y-2.1821
X5.6767Y-2.2805
X5.8736Y-2.1821
X6.0704Y-2.2805
X6.1688Y-2.1821
X2.8106Y-2.1821
X2.8106Y-2.3789
X2.909Y-2.2805
X3.1058Y-2.1821
X3.3027Y-2.2805
X3.4011Y-2.1821
X3.4011Y-2.3789
T10
X2.2003Y-2.0226
X2.2988Y-2.5148
X2.2988Y-2.6624
X2.2988Y-2.81
X2.3972Y-2.0226
T9
G00X5.7751Y-1.7884
M15
G01X5.6728Y-1.7884
M16
G05
G00X6.0842Y-1.7884
M15
G01X5.9621Y-1.7884
M16
G05
G00X3.0173Y-1.7884
M15
G01X2.8952Y-1.7884
M16
G05
G00X3.3165Y-1.7884
M15
G01X3.1944Y-1.7884
M16
G05
T11
G00X12.4562Y-2.7116
M15
G01X12.6531Y-2.7116
M16
G05
G00X5.7633Y-9.4439
M15
G01X5.9602Y-9.4439
M16
G05
G00X14.3263Y-6.7864
M15
G01X14.3263Y-6.5896
M16
G05
G00X11.2751Y-9.4439
M15
G01X11.472Y-9.4439
M16
G05
G00X2.0429Y-6.7864
M15
G01X2.0429Y-6.5896
M16
G05
G00X2.0429Y-4.1093
M15
G01X2.0429Y-3.9124
M16
G05
G00X5.7633Y-2.7116
M15
G01X5.9602Y-2.7116
M16
G05
T0
M30
